HIERARCHY
ROOT Bip001_Pelvis
{
  OFFSET 32.8599 95.8771 -27.9544
  CHANNELS 6 Xposition Yposition Zposition Zrotation Xrotation Yrotation
  JOINT Bip001_Spine
  {
    OFFSET 1.4188e-005 10.2191 -0.0116013
    CHANNELS 3 Zrotation Xrotation Yrotation
    JOINT Bip001_L_Thigh
    {
      OFFSET 11.0458 -10.2191 0.0116197
      CHANNELS 3 Zrotation Xrotation Yrotation
      JOINT Bip001_L_Calf
      {
        OFFSET -0.707118 -44.0221 0.360014
        CHANNELS 3 Zrotation Xrotation Yrotation
        JOINT Bip001_L_Foot
        {
          OFFSET -0.651902 -40.5938 -3.56146
          CHANNELS 3 Zrotation Xrotation Yrotation
          JOINT Bip001_L_Toe0
          {
            OFFSET 0.0530839 -10.2181 13.1504
            CHANNELS 3 Zrotation Xrotation Yrotation
            End Site
            {
              OFFSET -1.02532e-005 0 7.55606
            }
          }
        }
      }
    }
    JOINT Bip001_R_Thigh
    {
      OFFSET -11.0458 -10.2191 0.0115893
      CHANNELS 3 Zrotation Xrotation Yrotation
      JOINT Bip001_R_Calf
      {
        OFFSET 0.706994 -44.0221 0.35984
        CHANNELS 3 Zrotation Xrotation Yrotation
        JOINT Bip001_R_Foot
        {
          OFFSET 0.651787 -40.5938 -3.5613
          CHANNELS 3 Zrotation Xrotation Yrotation
          JOINT Bip001_R_Toe0
          {
            OFFSET -0.0531479 -10.2181 13.1504
            CHANNELS 3 Zrotation Xrotation Yrotation
            End Site
            {
              OFFSET -1.02894e-005 0 7.55606
            }
          }
        }
      }
    }
    JOINT Bip001_Spine1
    {
      OFFSET 1.87041e-005 14.5736 1.08638
      CHANNELS 3 Zrotation Xrotation Yrotation
      JOINT Bip001_Spine2
      {
        OFFSET 2.24614e-005 14.5058 -1.69078
        CHANNELS 3 Zrotation Xrotation Yrotation
        JOINT Bip001_Neck
        {
          OFFSET 2.20278e-005 15.3945 -0.489414
          CHANNELS 3 Zrotation Xrotation Yrotation
          JOINT Bip001_L_Clavicle
          {
            OFFSET 6.06036 -0.000579998 0.00836775
            CHANNELS 3 Zrotation Xrotation Yrotation
            JOINT Bip001_L_UpperArm
            {
              OFFSET 11.5509 -0.0600302 0.00193952
              CHANNELS 3 Zrotation Xrotation Yrotation
              JOINT Bip001_L_Forearm
              {
                OFFSET 25.9523 0.0806089 -2.15551
                CHANNELS 3 Zrotation Xrotation Yrotation
                JOINT Bip001_L_Hand
                {
                  OFFSET 32.2475 0.153767 1.63968
                  CHANNELS 3 Zrotation Xrotation Yrotation
                  JOINT Bip001_L_Finger0
                  {
                    OFFSET 6.04639 -2.20976 5.90322
                    CHANNELS 3 Zrotation Xrotation Yrotation
                    End Site
                    {
                      OFFSET 4.22375 -1.43895 0.606486
                    }
                  }
                  JOINT Bip001_L_Finger1
                  {
                    OFFSET 11.0826 -0.704819 -0.198153
                    CHANNELS 3 Zrotation Xrotation Yrotation
                    End Site
                    {
                      OFFSET 6.20027 -0.397518 -0.0787166
                    }
                  }
                }
              }
            }
          }
          JOINT Bip001_R_Clavicle
          {
            OFFSET -6.06036 -0.000563197 0.00835105
            CHANNELS 3 Zrotation Xrotation Yrotation
            JOINT Bip001_R_UpperArm
            {
              OFFSET -11.5509 -0.0599978 0.00190698
              CHANNELS 3 Zrotation Xrotation Yrotation
              JOINT Bip001_R_Forearm
              {
                OFFSET -25.9523 0.0806819 -2.1559
                CHANNELS 3 Zrotation Xrotation Yrotation
                JOINT Bip001_R_Hand
                {
                  OFFSET -32.2476 0.153857 1.63991
                  CHANNELS 3 Zrotation Xrotation Yrotation
                  JOINT Bip001_R_Finger0
                  {
                    OFFSET -6.04642 -2.20975 5.9032
                    CHANNELS 3 Zrotation Xrotation Yrotation
                    End Site
                    {
                      OFFSET -4.22376 -1.43894 0.606473
                    }
                  }
                  JOINT Bip001_R_Finger1
                  {
                    OFFSET -11.0826 -0.70479 -0.198183
                    CHANNELS 3 Zrotation Xrotation Yrotation
                    End Site
                    {
                      OFFSET -6.20028 -0.397501 -0.0787337
                    }
                  }
                }
              }
            }
          }
          JOINT Bip001_Head
          {
            OFFSET 1.09673e-005 11.2744 2.05948
            CHANNELS 3 Zrotation Xrotation Yrotation
            End Site
            {
              OFFSET 2.89576e-005 20.8808 -2.77728e-005
            }
          }
        }
      }
    }
  }
}
MOTION
Frames:	9
Frame Time:	0.04
33.2277 95.9165 -27.9975 -0.205214 0.62495 5.43356 -0.261518 1.70929 0.0156841 5.58465 -4.28795 5.09204 -0.835693 7.75774 -12.1848 4.9602 -2.62368 -0.127426 -1.36081 -4.82065 2.52481 -2.42859 -2.15406 -1.43808 0.299798 9.19268 -0.248883 -6.6708 -8.52322 -1.28744 2.30113 -7.75253 2.32508 -0.523852 3.41849 0.0391929 -0.523853 3.4185 0.0391936 -0.379467 -8.71636 -2.76899 -24.7678 8.50776 4.07163 -54.2299 42.6929 2.67706 16.3869 -0.981642 -21.437 9.1512 2.48032 -3.14207 -3.53112e-031 -6.36111e-015 -3.18055e-015 -3.53113e-031 -6.36111e-015 -3.18055e-015 10.5417 15.9943 34.9977 60.8742 -7.27055 66.0865 -6.89441 -9.40834 88.4198 -70.5046 44.7785 56.933 -1.98785e-015 -9.54166e-015 -4.77083e-015 -7.95139e-016 -6.36111e-015 -3.97569e-015 0.728851 -4.57927 -2.8977 
33.1682 95.9148 -27.9245 -0.299861 0.656358 5.46646 -0.265501 1.73072 -0.0149832 5.72513 -4.37546 5.34732 -0.759825 7.92263 -12.3996 4.7867 -2.91622 -0.110689 -1.44058 -4.63373 2.63395 -2.27577 -2.05557 -1.23865 0.323129 8.95239 -0.275336 -6.72284 -8.44091 -1.45623 2.29319 -7.70464 2.301 -0.529679 3.46275 -0.022427 -0.530301 3.46275 -0.0222498 -0.52088 -9.30027 -2.68701 -24.3503 8.9708 4.62563 -54.4268 43.2011 2.40347 16.3693 -1.04137 -21.3189 9.16127 2.41626 -3.13095 6.36111e-015 -3.18055e-015 3.18055e-015 3.18055e-015 -6.36111e-015 -0 8.48191 16.0577 36.8186 51.1492 -3.09875 63.8129 -12.4576 -17.3117 82.267 -68.1348 44.3241 52.5226 7.95139e-016 -3.18055e-015 -9.93923e-016 1.59028e-015 0 3.97569e-016 0.984847 -4.38716 -2.88907 
33.0466 95.9123 -27.8982 -0.581654 0.78012 5.35764 -0.243017 1.7177 -0.0489685 6.14263 -4.64346 5.77288 -0.844492 8.31085 -12.6061 4.7932 -3.15669 -0.0994555 -1.43068 -4.58612 2.61219 -1.9073 -2.07058 -0.848837 0.290115 8.66341 -0.315634 -6.76213 -8.2535 -1.6058 2.28001 -7.65568 2.27563 -0.483579 3.4356 -0.0897065 -0.48472 3.43559 -0.0902867 -0.608266 -9.5095 -2.50684 -23.7707 9.14061 4.91651 -54.9207 43.4392 2.42978 16.3626 -1.15039 -21.6013 9.25221 2.74989 -3.09793 -7.06225e-031 6.36111e-015 6.36111e-015 -3.18055e-015 6.36111e-015 3.18055e-015 6.348 15.6636 38.6695 41.3375 0.405399 63.2257 -18.7135 -24.3405 72.1121 -65.3895 44.6391 48.9233 1.98785e-016 -6.36111e-015 2.98177e-016 1.98785e-016 0 1.98785e-016 1.29507 -4.38407 -2.80008 
32.979 95.9224 -27.8548 -0.632828 0.806876 5.30007 -0.238408 1.69496 0.00434581 6.22931 -4.62745 6.09072 -0.777467 8.33763 -12.8692 4.59108 -3.28922 -0.0856227 -1.47806 -4.46688 2.64877 -1.80767 -2.02721 -0.767985 0.276502 8.58186 -0.317152 -6.75896 -8.20301 -1.65553 2.26449 -7.5999 2.24617 -0.472428 3.38988 0.0162763 -0.47313 3.38988 0.015921 -0.216083 -9.32778 -2.68945 -24.3129 8.88421 4.95974 -55.009 43.5393 2.72527 16.4871 -1.04998 -21.813 9.01706 2.76838 -3.1249 -1.76556e-031 3.18055e-015 3.18055e-015 3.18055e-015 0 -0 5.17198 15.2173 39.1896 37.1151 3.22375 65.4573 -25.7711 -25.856 63.6333 -64.1626 41.447 46.8119 1.73937e-016 0 -0 1.61513e-016 -3.18056e-015 -8.69683e-017 1.07667 -4.39941 -2.85584 
32.917 95.9306 -27.8207 -0.69534 0.94004 5.39993 -0.246689 1.62626 0.0696881 6.31777 -4.70935 6.25587 -0.690395 8.3516 -13.1449 4.24879 -3.46551 -0.0793128 -1.58431 -4.29593 2.72607 -1.70508 -1.95469 -0.616535 0.323131 8.35669 -0.349944 -6.8166 -8.09081 -1.89134 2.24552 -7.55573 2.24946 -0.495842 3.25219 0.146733 -0.495636 3.25219 0.146628 0.748435 -8.58021 -3.08261 -25.1903 8.15499 4.39593 -55.1397 43.1357 3.37767 16.2775 -1.44713 -22.3333 9.11149 2.92153 -3.0199 3.53112e-031 -6.36111e-015 3.18055e-015 -3.18055e-015 -3.18056e-015 3.18055e-015 4.333 14.3336 38.266 39.1211 2.62459 66.5204 -19.5909 -27.7843 67.9506 -69.3411 41.8824 55.7044 -1.19271e-015 6.36111e-015 1.19271e-015 -3.97569e-016 9.54167e-015 7.95139e-016 0.261185 -4.89813 -2.86025 
32.9238 95.9223 -27.7668 -0.49592 0.851724 5.34982 -0.258236 1.59024 0.0185343 6.10054 -4.36228 6.65891 -0.608384 8.02377 -13.5205 4.27266 -3.26074 -0.0840134 -1.52811 -4.42392 2.67233 -1.91577 -1.95166 -0.824741 0.329296 8.71761 -0.286489 -6.78285 -8.34359 -1.70353 2.23919 -7.54604 2.24485 -0.517282 3.18037 0.0442625 -0.517282 3.18038 0.0442645 0.771417 -7.98436 -3.01493 -24.9072 7.78563 3.61937 -55.7673 42.5357 3.90376 16.221 -1.00367 -22.1702 9.42419 2.66334 -3.28953 -0 -6.36111e-015 -0 -0 -6.36111e-015 -0 4.33471 13.5134 36.8436 36.2817 3.65097 65.9064 -23.1622 -19.3182 69.497 -62.0186 41.4981 40.0411 -7.95139e-016 6.36111e-015 -3.97569e-016 -7.95139e-016 6.36111e-015 -1.09332e-015 -0.0613488 -4.71499 -2.73475 
32.9566 95.9149 -27.6942 -0.185784 0.428837 4.87611 -0.270197 1.63581 -0.055072 5.78989 -3.6728 7.31563 -0.494383 7.75356 -13.6416 4.06379 -3.3049 -0.0789443 -1.57404 -4.32263 2.68684 -2.24585 -1.83041 -1.24209 0.227139 9.26859 -0.154658 -6.56857 -8.73351 -0.920151 2.2258 -7.48367 2.21747 -0.536865 3.27192 -0.103642 -0.538049 3.2719 -0.103191 0.254606 -7.50915 -2.60223 -24.1554 7.54985 3.08365 -56.0167 42.3301 3.79936 16.1818 -0.324494 -21.6545 9.11361 2.64595 -3.42193 -6.36111e-015 0 4.77083e-015 -3.18055e-015 -6.36111e-015 3.18055e-015 3.84574 12.5649 36.2848 33.17 4.37315 68.0802 -21.0417 -24.428 64.4572 -63.4342 42.3206 46.0141 8.94531e-016 3.18055e-015 4.96962e-016 1.49088e-015 0 8.94531e-016 0.254257 -4.53722 -2.5121 
32.8633 95.92 -27.7184 -0.404094 0.333373 4.2662 -0.215601 1.62176 -0.0765521 6.08406 -3.69174 7.81538 -0.459586 8.25309 -13.3278 3.50771 -3.96523 -0.0390783 -1.7212 -3.92957 2.80345 -2.02298 -1.82234 -1.16136 0.140163 9.18356 -0.0152165 -6.4568 -8.65527 -0.535461 2.20538 -7.43234 2.21203 -0.429102 3.24376 -0.145472 -0.428561 3.24377 -0.146266 -0.138563 -7.06846 -2.28114 -23.7412 7.22702 2.85977 -55.5562 42.5245 3.29859 16.0907 0.174157 -21.1895 8.5046 2.76986 -3.37014 0 3.18055e-015 -0 -0 0 1.59028e-015 4.22695 12.1496 36.5726 32.4833 5.01943 67.089 -22.3114 -23.0119 63.6182 -59.0232 43.2718 42.5754 3.97569e-015 -1.27222e-014 2.78298e-015 3.37934e-015 -1.27222e-014 1.59028e-015 0.752923 -4.73253 -2.39069 
32.7796 95.8987 -27.7513 -0.409866 0.210343 3.64816 -0.210217 1.60505 0.01156 6.11675 -3.46326 8.41375 -0.395919 8.27004 -13.4917 3.79372 -3.81742 -0.0552129 -1.58869 -4.1492 2.70036 -2.0102 -1.93734 -1.1862 0.103749 9.48067 0.0326013 -6.33166 -8.85329 -0.0742086 2.182 -7.36419 2.19273 -0.420427 3.21007 0.0289626 -0.420565 3.21007 0.0289716 -0.0935066 -6.95524 -2.30458 -23.8311 7.09585 2.87997 -55.1504 42.7939 2.7644 16.0953 0.317095 -20.808 8.34705 2.71381 -3.31684 -6.36111e-015 3.18055e-015 1.59028e-015 -6.36111e-015 9.54167e-015 1.59028e-015 5.96672 12.765 36.6194 33.3134 4.57111 65.0045 -20.2581 -20.8279 66.1517 -54.0705 42.5469 38.2214 -7.95139e-016 -9.54166e-015 2.38542e-015 7.95139e-016 -6.36111e-015 3.18055e-015 0.713573 -4.82254 -2.39152 
